<svg xmlns="http://www.w3.org/2000/svg" viewBox="0 0 760 430" font-family="Segoe UI,Arial,sans-serif"><rect width="100%" height="100%" fill="white"/><text x="30" y="32" font-size="18" font-weight="700" fill="#15171A">Tendrara site — ambient temperature through the year</text><text x="30" y="52" font-size="12" fill="#4A4F57">Monthly average day (max) and night (min) · 33.0106 N, 2.3505 W · 1,434 m a.s.l.</text><line x1="64" y1="352.0" x2="720" y2="352.0" stroke="#C9CED4" stroke-width="2" stroke-dasharray=""/><text x="54" y="356.0" text-anchor="end" font-size="12" fill="#4A4F57">0°</text><line x1="64" y1="282.0" x2="720" y2="282.0" stroke="#C9CED4" stroke-width="1" stroke-dasharray="3 4"/><text x="54" y="286.0" text-anchor="end" font-size="12" fill="#4A4F57">10°</text><line x1="64" y1="212.0" x2="720" y2="212.0" stroke="#C9CED4" stroke-width="1" stroke-dasharray="3 4"/><text x="54" y="216.0" text-anchor="end" font-size="12" fill="#4A4F57">20°</text><line x1="64" y1="142.0" x2="720" y2="142.0" stroke="#C9CED4" stroke-width="1" stroke-dasharray="3 4"/><text x="54" y="146.0" text-anchor="end" font-size="12" fill="#4A4F57">30°</text><line x1="64" y1="72.0" x2="720" y2="72.0" stroke="#C9CED4" stroke-width="1" stroke-dasharray="3 4"/><text x="54" y="76.0" text-anchor="end" font-size="12" fill="#4A4F57">40°</text><path d="M 64.0 268.0 L 123.6 254.0 L 183.3 226.0 L 242.9 191.0 L 302.5 163.0 L 362.2 121.0 L 421.8 93.0 L 481.5 107.0 L 541.1 142.0 L 600.7 184.0 L 660.4 233.0 L 720.0 261.0 L 720.0 317.0 L 660.4 296.0 L 600.7 254.0 L 541.1 219.0 L 481.5 191.0 L 421.8 184.0 L 362.2 212.0 L 302.5 247.0 L 242.9 275.0 L 183.3 303.0 L 123.6 317.0 L 64.0 331.0 Z" fill="#FBE9EC" opacity="0.75"/><path d="M 64.0 268.0 L 123.6 254.0 L 183.3 226.0 L 242.9 191.0 L 302.5 163.0 L 362.2 121.0 L 421.8 93.0 L 481.5 107.0 L 541.1 142.0 L 600.7 184.0 L 660.4 233.0 L 720.0 261.0" fill="none" stroke="#C8102E" stroke-width="3.5" stroke-linejoin="round"/><path d="M 64.0 331.0 L 123.6 317.0 L 183.3 303.0 L 242.9 275.0 L 302.5 247.0 L 362.2 212.0 L 421.8 184.0 L 481.5 191.0 L 541.1 219.0 L 600.7 254.0 L 660.4 296.0 L 720.0 317.0" fill="none" stroke="#2b2e33" stroke-width="3.5" stroke-linejoin="round"/><circle cx="64.0" cy="268.0" r="4" fill="#C8102E"/><circle cx="64.0" cy="331.0" r="4" fill="#2b2e33"/><text x="64.0" y="258.0" text-anchor="middle" font-size="11.5" font-weight="700" fill="#C8102E">12</text><text x="64.0" y="349.0" text-anchor="middle" font-size="11.5" font-weight="700" fill="#2b2e33">3</text><text x="64.0" y="374" text-anchor="middle" font-size="12" fill="#4A4F57">Jan</text><circle cx="123.6" cy="254.0" r="4" fill="#C8102E"/><circle cx="123.6" cy="317.0" r="4" fill="#2b2e33"/><text x="123.6" y="244.0" text-anchor="middle" font-size="11.5" font-weight="700" fill="#C8102E">14</text><text x="123.6" y="335.0" text-anchor="middle" font-size="11.5" font-weight="700" fill="#2b2e33">5</text><text x="123.6" y="374" text-anchor="middle" font-size="12" fill="#4A4F57">Feb</text><circle cx="183.3" cy="226.0" r="4" fill="#C8102E"/><circle cx="183.3" cy="303.0" r="4" fill="#2b2e33"/><text x="183.3" y="216.0" text-anchor="middle" font-size="11.5" font-weight="700" fill="#C8102E">18</text><text x="183.3" y="321.0" text-anchor="middle" font-size="11.5" font-weight="700" fill="#2b2e33">7</text><text x="183.3" y="374" text-anchor="middle" font-size="12" fill="#4A4F57">Mar</text><circle cx="242.9" cy="191.0" r="4" fill="#C8102E"/><circle cx="242.9" cy="275.0" r="4" fill="#2b2e33"/><text x="242.9" y="181.0" text-anchor="middle" font-size="11.5" font-weight="700" fill="#C8102E">23</text><text x="242.9" y="293.0" text-anchor="middle" font-size="11.5" font-weight="700" fill="#2b2e33">11</text><text x="242.9" y="374" text-anchor="middle" font-size="12" fill="#4A4F57">Apr</text><circle cx="302.5" cy="163.0" r="4" fill="#C8102E"/><circle cx="302.5" cy="247.0" r="4" fill="#2b2e33"/><text x="302.5" y="153.0" text-anchor="middle" font-size="11.5" font-weight="700" fill="#C8102E">27</text><text x="302.5" y="265.0" text-anchor="middle" font-size="11.5" font-weight="700" fill="#2b2e33">15</text><text x="302.5" y="374" text-anchor="middle" font-size="12" fill="#4A4F57">May</text><circle cx="362.2" cy="121.0" r="4" fill="#C8102E"/><circle cx="362.2" cy="212.0" r="4" fill="#2b2e33"/><text x="362.2" y="111.0" text-anchor="middle" font-size="11.5" font-weight="700" fill="#C8102E">33</text><text x="362.2" y="230.0" text-anchor="middle" font-size="11.5" font-weight="700" fill="#2b2e33">20</text><text x="362.2" y="374" text-anchor="middle" font-size="12" fill="#4A4F57">Jun</text><circle cx="421.8" cy="93.0" r="4" fill="#C8102E"/><circle cx="421.8" cy="184.0" r="4" fill="#2b2e33"/><text x="421.8" y="83.0" text-anchor="middle" font-size="11.5" font-weight="700" fill="#C8102E">37</text><text x="421.8" y="202.0" text-anchor="middle" font-size="11.5" font-weight="700" fill="#2b2e33">24</text><text x="421.8" y="374" text-anchor="middle" font-size="12" fill="#4A4F57">Jul</text><circle cx="481.5" cy="107.0" r="4" fill="#C8102E"/><circle cx="481.5" cy="191.0" r="4" fill="#2b2e33"/><text x="481.5" y="97.0" text-anchor="middle" font-size="11.5" font-weight="700" fill="#C8102E">35</text><text x="481.5" y="209.0" text-anchor="middle" font-size="11.5" font-weight="700" fill="#2b2e33">23</text><text x="481.5" y="374" text-anchor="middle" font-size="12" fill="#4A4F57">Aug</text><circle cx="541.1" cy="142.0" r="4" fill="#C8102E"/><circle cx="541.1" cy="219.0" r="4" fill="#2b2e33"/><text x="541.1" y="132.0" text-anchor="middle" font-size="11.5" font-weight="700" fill="#C8102E">30</text><text x="541.1" y="237.0" text-anchor="middle" font-size="11.5" font-weight="700" fill="#2b2e33">19</text><text x="541.1" y="374" text-anchor="middle" font-size="12" fill="#4A4F57">Sep</text><circle cx="600.7" cy="184.0" r="4" fill="#C8102E"/><circle cx="600.7" cy="254.0" r="4" fill="#2b2e33"/><text x="600.7" y="174.0" text-anchor="middle" font-size="11.5" font-weight="700" fill="#C8102E">24</text><text x="600.7" y="272.0" text-anchor="middle" font-size="11.5" font-weight="700" fill="#2b2e33">14</text><text x="600.7" y="374" text-anchor="middle" font-size="12" fill="#4A4F57">Oct</text><circle cx="660.4" cy="233.0" r="4" fill="#C8102E"/><circle cx="660.4" cy="296.0" r="4" fill="#2b2e33"/><text x="660.4" y="223.0" text-anchor="middle" font-size="11.5" font-weight="700" fill="#C8102E">17</text><text x="660.4" y="314.0" text-anchor="middle" font-size="11.5" font-weight="700" fill="#2b2e33">8</text><text x="660.4" y="374" text-anchor="middle" font-size="12" fill="#4A4F57">Nov</text><circle cx="720.0" cy="261.0" r="4" fill="#C8102E"/><circle cx="720.0" cy="317.0" r="4" fill="#2b2e33"/><text x="720.0" y="251.0" text-anchor="middle" font-size="11.5" font-weight="700" fill="#C8102E">13</text><text x="720.0" y="335.0" text-anchor="middle" font-size="11.5" font-weight="700" fill="#2b2e33">5</text><text x="720.0" y="374" text-anchor="middle" font-size="12" fill="#4A4F57">Dec</text><rect x="447.8181818181818" y="84.0" width="142" height="22" rx="11" fill="#C8102E"/><text x="518.8" y="99.0" text-anchor="middle" font-size="11.5" font-weight="700" fill="#fff">summer peak 37 °C</text><rect x="80" y="279.0" width="206" height="22" rx="11" fill="#2b2e33"/><text x="183.0" y="294.0" text-anchor="middle" font-size="11.5" font-weight="700" fill="#fff">winter nights ~3 °C — frost risk</text><line x1="110" y1="301.0" x2="68.0" y2="325.0" stroke="#2b2e33" stroke-width="1.5"/><line x1="470" y1="398" x2="500" y2="398" stroke="#C8102E" stroke-width="3.5"/><text x="506" y="402" font-size="12" fill="#15171A">Day (avg max)</text><line x1="600" y1="398" x2="630" y2="398" stroke="#2b2e33" stroke-width="3.5"/><text x="636" y="402" font-size="12" fill="#15171A">Night (avg min)</text><text x="30" y="402" font-size="10.5" fill="#4A4F57">Annual swing ≈ 3–37 °C (Δ34 °C) · data: WorldWeatherOnline 12+ yr averages</text></svg>