<svg xmlns="http://www.w3.org/2000/svg" viewBox="0 0 700 400" font-family="Segoe UI,Arial,sans-serif"><rect width="700" height="400" fill="white"/><text x="170" y="42" text-anchor="middle" font-size="17" font-weight="700" fill="#15171A">By mass — MJ/kg</text><rect x="38" y="111.8" width="52" height="218.2" rx="3" fill="#C8102E"/><text x="64.0" y="103.8" text-anchor="middle" font-size="15" font-weight="700" fill="#15171A">50</text><text x="64.0" y="352" text-anchor="middle" font-size="14" fill="#4A4F57">LNG</text><rect x="112" y="124.9" width="52" height="205.1" rx="3" fill="#8b929b"/><text x="138.0" y="116.9" text-anchor="middle" font-size="15" font-weight="700" fill="#15171A">47</text><text x="138.0" y="352" text-anchor="middle" font-size="14" fill="#4A4F57">LPG</text><rect x="186" y="111.8" width="52" height="218.2" rx="3" fill="#4A4F57"/><text x="212.0" y="103.8" text-anchor="middle" font-size="15" font-weight="700" fill="#15171A">50</text><text x="212.0" y="352" text-anchor="middle" font-size="14" fill="#4A4F57">CNG</text><rect x="260" y="142.4" width="52" height="187.6" rx="3" fill="#c2c7cd"/><text x="286.0" y="134.4" text-anchor="middle" font-size="15" font-weight="700" fill="#15171A">43</text><text x="286.0" y="352" text-anchor="middle" font-size="14" fill="#4A4F57">Diesel</text><line x1="26" y1="330" x2="330" y2="330" stroke="#C9CED4" stroke-width="2"/><text x="170" y="382" text-anchor="middle" font-size="12" fill="#4A4F57">high per kg for all gases</text><text x="520" y="42" text-anchor="middle" font-size="17" font-weight="700" fill="#15171A">By volume — MJ/L</text><rect x="388" y="192.0" width="52" height="138.0" rx="3" fill="#C8102E"/><text x="414.0" y="184.0" text-anchor="middle" font-size="15" font-weight="700" fill="#15171A">23</text><text x="414.0" y="352" text-anchor="middle" font-size="14" fill="#4A4F57">LNG</text><rect x="462" y="180.0" width="52" height="150.0" rx="3" fill="#8b929b"/><text x="488.0" y="172.0" text-anchor="middle" font-size="15" font-weight="700" fill="#15171A">25</text><text x="488.0" y="352" text-anchor="middle" font-size="14" fill="#4A4F57">LPG</text><rect x="536" y="273.0" width="52" height="57.0" rx="3" fill="#4A4F57"/><text x="562.0" y="265.0" text-anchor="middle" font-size="15" font-weight="700" fill="#15171A">9.5</text><text x="562.0" y="352" text-anchor="middle" font-size="14" fill="#4A4F57">CNG</text><rect x="610" y="114.0" width="52" height="216.0" rx="3" fill="#c2c7cd"/><text x="636.0" y="106.0" text-anchor="middle" font-size="15" font-weight="700" fill="#15171A">36</text><text x="636.0" y="352" text-anchor="middle" font-size="14" fill="#4A4F57">Diesel</text><line x1="376" y1="330" x2="680" y2="330" stroke="#C9CED4" stroke-width="2"/><text x="520" y="382" text-anchor="middle" font-size="12" fill="#4A4F57">volume is where they differ</text><line x1="350" y1="30" x2="350" y2="370" stroke="#C9CED4" stroke-dasharray="4 4"/></svg>