<svg xmlns="http://www.w3.org/2000/svg" width="640" height="400" viewBox="0 0 640 400" font-family="Segoe UI,Arial,sans-serif"><rect width="640" height="400" fill="white"/><path d="M 190.0 60.0 A 140 140 0 1 1 121.7 77.8 L 150.0 128.4 A 82 82 0 1 0 190.0 118.0 Z" fill="#C8102E"/><path d="M 122.6 77.3 A 140 140 0 0 1 158.5 63.6 L 171.6 120.1 A 82 82 0 0 0 150.5 128.1 Z" fill="#4A4F57"/><path d="M 159.5 63.4 A 140 140 0 0 1 180.2 60.3 L 184.3 118.2 A 82 82 0 0 0 172.1 120.0 Z" fill="#8b929b"/><path d="M 181.2 60.3 A 140 140 0 0 1 189.0 60.0 L 189.4 118.0 A 82 82 0 0 0 184.9 118.2 Z" fill="#c2c7cd"/><text x="190" y="196" text-anchor="middle" font-size="40" font-weight="700" fill="#15171A">92%</text><text x="190" y="224" text-anchor="middle" font-size="14" fill="#4A4F57">methane</text><rect x="380" y="107" width="16" height="16" rx="3" fill="#C8102E"/><text x="404" y="120" font-size="16" fill="#15171A">Methane</text><text x="620" y="120" font-size="16" font-weight="700" text-anchor="end" fill="#15171A">92%</text><rect x="380" y="149" width="16" height="16" rx="3" fill="#4A4F57"/><text x="404" y="162" font-size="16" fill="#15171A">Ethane</text><text x="620" y="162" font-size="16" font-weight="700" text-anchor="end" fill="#15171A">4.5%</text><rect x="380" y="191" width="16" height="16" rx="3" fill="#8b929b"/><text x="404" y="204" font-size="16" fill="#15171A">Propane &amp; heavier</text><text x="620" y="204" font-size="16" font-weight="700" text-anchor="end" fill="#15171A">2.5%</text><rect x="380" y="233" width="16" height="16" rx="3" fill="#c2c7cd"/><text x="404" y="246" font-size="16" fill="#15171A">Nitrogen / other</text><text x="620" y="246" font-size="16" font-weight="700" text-anchor="end" fill="#15171A">1%</text><text x="380" y="300" font-size="12" fill="#4A4F57">Typical LNG composition — % mol</text></svg>